<svg height="64" preserveAspectRatio="xMidYMid" viewBox="0 0 32 32" width="64" xmlns="http://www.w3.org/2000/svg"><path d="m9.5626372 26.872785c-1.2186683-.958775-2.519153-1.877584-3.4076257-3.172203-1.8700615-2.282898-3.3094877-4.925494-4.2935875-7.703057-.5951051-1.806231-.7987048-3.742613-1.56623139-5.478747-.80184353-1.2613489.13810456-2.6392479 1.51956879-3.0399583.6145654-.1184344 1.695966-.69868.3906685-.2835322-1.1705408.8583369-1.28332623-.7798685-.0832811-.8836555.8190018-.1085994 1.1205302-.7788221.8401361-1.382084-.8794751-.5737595 2.1318324-1.2031775.6164485-2.0590031-1.5775308-1.7026536 2.2075808-2.03033558 1.2734916-.0964632-.2232691 1.4869173 2.6457488-.2730698 1.9794989 1.4442312.6769217.824857 2.5340097.188114 2.487347 1.3446293.9857741.067796 1.3241301.896629 2.2485931.96045.959619.433144 2.697434.7740085 3.023445 1.8545665-.951248.7528761-3.153388-1.5553418-3.259687.5289803.287718 3.079716.214271 6.252128 1.340661 9.184743.532748 1.775471 1.825072 3.173041 2.991428 4.556171 1.116555 1.354255 2.6288 2.308218 4.17034 3.110894 1.35196.637579 2.809382 1.060052 4.283125 1.325797.597407-.456997 1.652652-2.156303 2.584439-1.440255.04499.806025-1.849555 1.68382-.08893 1.59468 1.034737-.312198 1.751626.799328 2.603271-.203599.784685.929482 3.26136-.593426 2.703083 1.306338-.755181.487129-1.856251.192717-2.612269.863148-1.2465-.622932-2.238969.556601-3.619387.407826-1.532543.274534-3.092287.385017-4.645963.387318-2.549495-.201088-5.152766-.286043-7.577966-1.173673-1.366607-.397154-2.699735-1.175348-3.9006168-1.953542zm2.1529668.933456c1.333965.576269 2.638634 1.184345 4.100869 1.368274 2.319738.322034 4.715433.818999 7.043332.366184-1.05357-.47562-2.143131.184767-3.192726-.340028-1.258635.270559-2.609758-.06947-3.889945-.237077-1.454911-.648041-3.025746-1.093532-4.388378-1.935548-1.7034987-.621885.880312.797865 1.340452.913161 1.064242.603891-1.170541-.309898-1.486089-.560786-.891612-.500313-1.005234-.395688-.08809.111948.184558.107973.367023.221594.560579.313872zm-2.5388226-1.794094c1.2931606.478968-.00565-.908974-.5974068-.828832-.2623988-.455326-1.0029323-.743041-.4806459-.987444-.939111.326219-.9840996-1.240004-1.4254065-1.015899-.9939345-.313873-.3866929-1.425609-1.5710442-2.108804-.1079727-.719396-1.1761906-1.342955-1.5162208-2.427699-.1504503-.555763-1.2073688-2.150444-.5582773-.666246.5524183 1.428747 1.5243815 2.653268 2.3335488 3.875278.6277481 1.163839 1.3699555 2.381035 2.5135032 3.106917.3858558.370161.7576919.936595 1.3019495 1.052729zm-3.7238015-4.089339c.044779-.195438.2362425.422472 0 0zm5.2728741 4.663097c.286044-.12827-.412012-.161747 0 0zm.701195.255911c-.07261-.353211-.320361.197739 0 0zm.878847.366185c.417662-.398199-.644906-.251098 0 0zm1.505549.839294c.254238-.375182-.813352-.141242 0 0zm-2.890989-2.015478c.648882-.420172-.839508-.0059 0 0zm.658717.328519c-.01883-.221594-.234568.0996 0 0zm3.293166 2.055654c.529611.334381 3.092287.732369 1.487764.137268-.269095.0565-2.975317-.765849-1.487764-.137268zm-5.2278853-4.07218c-.051475-.22222-.82235-.246075 0 0zm1.5325423.894327c.399666-.278719-.828-.215106 0 0zm1.289813.790331c.572925-.215735-.928439-.216571 0 0zm-3.4469647-2.363878c.6212614.47646 2.5061797.06131.9514569-.284368-.7070536-.376856-2.3009059-.635068-1.2144833.227243l.2630264.05712zm4.3207897 2.636948c.259051-.440677-1.085585-.251935 0 0zm-1.31283-1.043103c1.518731.429167-1.277467-.961286-.374975-.15861l.200252.09081zm2.632147 1.521234c1.438589.01381-1.299647-.198576 0 0zm-6.1933619-3.94726c-.056497-.268045-.3546777.02218 0 0zm8.6267239 5.312187c.03829-.483783-.469347.360534 0 0zm-6.171392-3.808946c-.08747-.255074-.449468-.01067 0 0zm-2.3189013-1.671476c.8256979-.0498-1.131202-.363673 0 0zm-2.7472348-1.775471c-.1029506-.396316-.8983075-.711862 0 0zm7.2117791 4.576678c-.151078-.172629-.07115.03746 0 0zm4.488189 2.754544c-.01381-.26407-.244403.0996 0 0zm-4.885344-3.164879c.08098-.340028-.704543-.10316 0 0zm-3.3440143-2.119477c.6147746-.06549-.9849368-.415358 0 0zm5.6564283 3.514745c.957943-.379369-.933462-.184768 0 0zm-2.941836-1.996858c1.103372.142079-1.313459-.751201-.24273-.08014zm3.835122 2.35802c1.030762-.6154.690731 1.442765 1.748487.174094 1.042899-.761664-.900818.941617.384182.135802.930113-.622095 2.303207.29504 3.170546.593429.623564-.03034 1.230177.53944 1.870061.192716 1.231015-.331867-2.407831-.491943-1.454074-1.07972-1.126388.327892-1.958363-.390667-2.512666-1.112364-1.263656-.291902-2.724216-.937642-3.355312-2.056493-.257377-.419333.371207.05964-.222223-.626907-.76104-.676918-1.141037-1.446114-1.652024-2.269088-.61059-.325381-.682571-1.284156-.743882-.03181.005-.79054-.737185-1.322658-.918604-1.101901-.0033-.761036.79452-.379367.236242-.942454-.120109-.788866-.515799-1.611003-.634444-2.501982-.184558-.429168-.02616-1.348604-.630887-.376856-.219921 1.027409-.07282-1.261975.269723-.507635.449468-.769825-.161959-.679221-.186441-.572922.29274-.649716.185604-1.571874-.07679-1.220337.1561-.689053.246914-2.535461-.232894-2.207779.290856-.72086.55179-3.2973333-.712076-2.3147034-.5116145.0073-1.3984133.185604-1.8169119.3940149 1.3134581.7242085-.1324549.2615606-.667924.1462642-.069471.6702213-.5990809.3808321-1.2611458.387318 1.0577554.1307813-.5149628 1.0813963-1.1205304.7120733-.788033.376019.6792234 1.315961.015485 1.606817.081816.437328-1.2065317-.158402-1.1058829.853523-.7643878-.322241-.1046246 1.199829.2778832.68487 1.3004847.352374.915466 1.154214.9481088 1.916714-.2117603.443815-1.0462467-1.04373-.1856041-.975097-.6792235-1.102738-.750996-.398828-1.3151322.113622-.1307809.03683 1.4385893.729021.4536526 1.070724.8665015.134127.8918207.892652 1.0684272 1.372458.5206124.542582.4134767-.599286 1.0372491.05315-.3948591-.581288-2.0893603-1.637363-.7250546-1.2988-.00732-.584431-.2469142-1.056077.1715844-1.044778.414523-.749527-.4339831 1.848919.4994783.896002.2582137-.112785.3228717-.750364.7871961.06047.6742014.663737.2435661 1.14417-.7078906.536095.1699105.577944 1.2726546.783843 1.0650792 1.687169.2197118.794516.5270992.501777.7951475.455951.2100864.771708.3295678.204436.3394025-.163423.9619193.20611.7363484.774847 1.0378768 1.172209.6629018.299016-.9489459-2.028033.1889518-.699726 1.197325 1.081395.449468 1.532534-.6252367 1.359277.6800607-.05482.8989347.919646 1.7499527.88533.775687.369323 1.301321 1.786771-.03599 1.196481-.463488-.418497-2.1056766-.934294-.764179-.13894 1.237501.573758 2.2216.916297 3.415786 1.63653.854157.609749 1.223482 1.308429 1.54719 1.446742-.718353.343167-2.164266-.273906-1.090398-.462647-.670225-.121783-1.423733-.460975-.782174.373508.545931.456161 1.933045.407824 2.18247.4593-.210923.464321-.572924.501148.0082.53714-.648255.345678.208413.399664.268049.596567zm-1.325804-3.744289c-.394854-.412847-.496967-1.185183-.07031-.513496.219085.0883.700568 1.263023.07031.513496zm4.318279 2.743035c.246077-.01632.0073.187069 0 0zm-4.941005-3.75496c-.01569-.623768.14208.481272 0 0zm-.429171-.577107c-.496967-.958775.625237.271395 0 0zm-5.2019387-3.589862c.2919029-.07784.1439636.498429 0 0zm4.1402077 2.243559c.178908-.672733.210087.564134 0 0zm-2.9246782-2.033684c-.2059014-.370997.4308445.348398 0 0zm2.5093182.804351c-.469974-1.052729.333544-.575433.104625.17242zm-4.3279043-2.886161c-.2100863-.345678-.5574403-1.359277-.4454918-1.668964.1004397.504287 1.0715659 2.169276.4756238.689891-.65788-1.240006.787196.401966.9359722.711863.069471.307386-.4063621-.08412-.084327.637579-.5875723-.82151-.346517.453651-.8817769-.370369zm-1.3373125-.921948c.054823-.803513.3057132.550951 0 0zm.6015919.207574c.2868808-.606402.4862955.845154 0 0zm-1.4475871-1.119688c-.4978042-.4955-.8583408-.951452.023645-.307386.3391932.01297-.7551809-1.037244.081816-.33354.879475.160284.4339831 1.442765-.1054617.640926zm.7602029-.01967c.2893919-.28688.153589.282065 0 0zm.4683.149611c-.4390051-.821508.5321212.344842 0 0zm-.9301134-.888466c-1.447587-1.289178 1.8185862.673362.2362425.238544zm4.1481592 2.409494c-.626911-.375182-.1667717-2.644061.047499-1.092694.608916-.197111-.033689.801839.419964.792004-.07094.630047-.274535.856663-.4674636.30069zm1.5342163.9073c.06131-.684031.129107.467671 0 0zm-.266374-.26407c.06863-.291693.0065.344213 0 0zm-5.1324686-3.476241c-.9301134-1.28332 2.7030832 1.297967.5959422.32538-.219921-.05796-.4854586-.07847-.5959422-.32538zm2.9548102 1.566222c-.088094-1.080558.1962758.178908 0 0zm2.2429434 1.439209c.173259-.615398.01318.407198 0 0zm-5.054627-3.495073c.5526276-.118434 2.2902342.970284.6947078.310734-.1772341-.196275-.5557663-.107135-.6947078-.310734zm4.746403 2.365552c.05901-1.10504.330405-.659551.0025.15861zm-4.3352281-2.75036c.2255709-.330402-.5984531-1.493404.1184352-.417032.3098983.246077.8966335.412011.3785321.515798.814817.718559-.1985776.194601-.4969673-.09877zm4.1006601 2.405519c.155472-1.258839.137476.737181 0 0zm-4.5714711-3.567893c.1724215-.07366.091442.229545 0 0zm1.0698919.636743c.2753723-.577944.507639.644066 0 0zm3.0169572 1.677961c-.0025-.221384.05713.322871 0 0zm-.174932-.386481c-.4184992-1.033267.389831.546765 0 0zm-.2567494-.677755c-.070099-.426657.2387534.536303 0 0zm.4184984-.680057c-.2877175-.505962.363048-2.2314231.435867-1.161328-.303412.833646-.08747 1.299642.123248.181418.390877-.87947-.08412 1.736971-.559115.97991zm.430008-2.5655924c.125131-.1537972.02783.1853941 0 0zm-.7183533 14.1512514c-.1701197-.148776.021971.09395 0 0zm1.4793933.747852c.822977.21176.819002-.12764.07512-.228918-.399666-.371834-1.6624859-.766685-.532121-.04583.07449.189788.310735.184767.457001.274743zm-2.9213306-1.940568c.4528157.338563 1.7074746.957938.6457435.129314.3580257-.416193-.6850823-.637578-.3391932-.916297-.880312-.538815-.694917-.490477-.077632-.47332-1.0577555-.473319.152752-.437328.095627-.680057-.407827-.08014-2.0263708-.719394-1.074077.05231-.9677783-.492988-.2305928.183929-.5231234.112784-.9899586-.269721.8811491.753712-.156937.499477.567275.449464 1.5277295 1.152539.2393813.47562-.1690734.244402.922162.614772 1.1902103.800166zm1.5471896.889304c1.880943.605775-.9227896-.741366 0 0zm7.920507 4.798063c.02448-.373508-.256749.318686 0 0zm.814188.34254c.433984-.420171.018.670222.71919-.10295.0073-.553462-.02113-.880308-.805818-.207784-.216783.120319-.313038.629419.08663.310734zm-12.9228207-8.115694c-.1332918-.523957-.9342983-.521655 0 0zm.8688034.569574c-.3228718-.535257-1.1517085-.484618 0 0zm4.9460273 2.982624c.483156.429168 2.217624.31471.586107.05315-.241264-.357187-1.533379-.271395-.586107-.05315zm6.798093 4.198985c.743044-.623768-.720028.277882 0 0zm1.545725 1.061726c.0048-.200251-.320361.08747 0 0zm.0025-.280393c.822979-.871309-.79703.05147 0 0zm-16.2994678-10.322635c-.7011946-1.000415-.4356572-1.450089-1.1123696-2.267414-.1284791-.625233-1.1607061-2.04268-.5337951-.541116.5737618.878634.7438815 2.238747 1.6461647 2.80853zm16.0410548 10.045591c1.514757-.978445-.621052-.425821 0 0zm1.155894.452814c.758529-.650763-.479809-.135804 0 0zm-15.3162156-9.814372c.2167823-.322871-.560579-.04164 0 0zm15.0749506 9.505312c.734048-.47311-.169074-.400502-.133082.04331zm-9.962152-6.279122c-.02532-.32036-.388157.02699 0 0zm.615402.354048c-.196066-.395688-.300691.06215 0 0zm10.524615 6.244805c.940785-.678592-.569576-.130152-.196904.129107zm-.360327-.174095c.76669-.641765-.80854.284369 0 0zm1.840557 1.225149c.514335-.344213-.625237-.11111 0 0zm-17.2613976-11.108991c.6890582.154426 2.7553955 1.697631 1.5367273.107136-.6244001-.184767-.250053-1.710814-.8867988-1.441092.4274964.714372.3513297 1.017573-.5461407.568108-1.1270172-.550951-.6333979.272233-.4126398.499476-.3009006.06863.3971553.260722.308852.266372zm-3.141042-2.480638c.1232479-.510983-1.137061-2.808529-.5951051-1.151701.1952296.347351.1749323 1.005228.5951051 1.151701zm5.7656567 3.55471c-.3555147-.296714-.017158-.04248 0 0zm.8738252.203598c0-.541116-.9661042-.219919 0 0zm7.5771277 4.775882c-.144591-.369532-.57125-.0082 0 0zm.363676.265537c-.05399-.206738-.210086.04018 0 0zm3.003147 1.892232c.288555-.213224-.360537-.02762 0 0zm-16.0148995-10.291457c.8263258-.319732-.885334-.22808 0 0zm11.9809905 7.547584c-.0096-.534629-.527099.133292 0 0zm-12.3072102-8.30862c.5304471-.178907-.4913175-.117598 0 0zm1.539866.74618c-.009-.175559-.1625868.06717 0 0zm18.7876632 11.521c.682361-.138104 2.237921.347351 2.488811-.180582-.828836-.02051-2.866506-.585267-2.962971.133919l.18142.02867.29274.018zm-18.2980197-11.397545c.012346-.541952-.4224745-.0203 0 0zm-4.0491843-2.809158c-.1839301-1.032431-.6997297-.156307 0 0zm.9652673.242729c.012346-.331869-.88366-.298389 0 0zm.5517906.271395c-.159448-.129316-.1242941.162585 0 0zm3.4729115 2.227239c.1636329-.15045-.3873206-.111112 0 0zm-3.8399349-2.838663c-.093953-.779868-1.1190655-.11697 0 0zm-1.9805451-1.284994c-.02783-.359697-.1929279.135593 0 0zm.2950416-.222221c-.048127-.426867-.253401.05378 0 0zm1.6267044.970912c.6882211-.26972-1.2531944-.559112-.1406155-.050639l.1406155.05064zm21.7782546 13.452361c.44047-.40364-.559115-.124921 0 0zm2.631101 1.363462c.176606-.521447-.444655.06863 0 0zm-24.2427931-15.6683c.072819-.505126-.5459315.100439 0 0zm-2.3155533-1.551367c-.12429415-.7126996-.1071357-1.9642131 1.0822377-1.5415313-1.58736567.3155454 1.099396 1.9738383.7602028.6643626.6677147.0328498 1.3061344-.394643.9554326.2533997 1.3159691-.1445903 2.2274593-1.2856213 3.4984399-1.1253372.9897495-.1316173 2.0719871-.2305918 3.1387404-.6294187.876964-.0629797 1.721285-1.0071119 1.240849-1.5670602-1.19586-.1012758-2.4482179.0483359-3.7698368.3115708-1.4647454.3040372-2.795362.8826091-4.2732903 1.131195-1.4411003.193764.2893919.5329563-.1234571.6089139-.7512052.2607236.8966335.4364907-.0973009.7118623-.6137284-.1167604-1.2529851-.3276833-.9905865-.975098-1.3797902.1799541-2.59280871.7520391-1.5024103 2.1563041l.080979.000875zm3.3260184-1.6936555c.3228718-1.191669 1.7327939.9809559.5296102.1586102-.1431267-.1079714-.3802062-.195438-.5296102-.1586102zm.062775-.577943c.4668353-.3473521.2477511.195437 0 0zm.5925941.0098c.042687-.5484395 1.3578191.2902275.2167823.197112zm.8108412-.3259723c.2967155-.3467246.086002.3071774 0 0zm.2077845-.1389407c.4936193-.5925907 2.7928511-.3785305 1.1098586-.058171-.4511416-.3400282-.7968215.2002507-1.1098586.058171zm3.0012635-.4626476c-.074283-1.6193728 1.4917387.5745954 0 0zm.8518542-.0050199c.3113625-.8156496 1.2088335-.3276833.1445915-.1642605.02281.087466-.03181.4218453-.1445915.1642605zm-6.8734229 4.327249c.9301134-.569783-.9874476-.494454 0 0zm.6882212.190416c.3262197-.346515-.7095645-.140615 0 0zm-2.0269984-1.437745c.531284-.408662-.6294221-.155262 0 0zm27.4704646 17.185351c.01548-.474157-.406363.213224 0 0zm-2.791386-1.905415c.07931-.545092-.358863.0475 0 0zm3.558912 2.089344c.743045.0025 2.251733-.231429.635072-.230592-.254238.03934-1.478556.03118-.635072.230592zm-25.6060523-16.265914c.6015918-.0408.9407851-.662898-.1169704-.627744-1.6388409-.169073 1.445913.561622-.2100863.352374-.2222228.147101.313874.316383.3270567.27537zm.5296101.268257c-.062984-.385854-.1864411.205063 0 0zm.6285851-1.67566c.2607246-.3237074-.3613736-.08663 0 0zm-2.0010516-3.3439976c1.074077-.3645106 2.5421704-.774846 3.0489724.1799541-.5157998-.6204206-.2084124-1.2318449.2787201-.3237071.6890581.9179715 1.033901-.4176592.5858981-.7258826.510987.6342318 1.0912354.934294.3417043.0401761.8150262-.9801187-1.6306803.1282694-2.1864465.1167606-.2672114.1201082-2.7610453.6359055-2.0688484.7126989zm.6294221-1.2046413c.6122636-.4618113 2.1178126.2753699 1.1517084-.4595101-.09479-.0832808-2.1153018.5574371-1.1517084.4595101zm2.232272.092278c.7160513.0179952-.308852-.962961.5444669-.5183083-.1397786-.4576251-.9939345-.5434172-1.4115961-.7265099-.2362425.4184965.4804365 1.2504672.8671292 1.2448185zm-1.8407665-2.0263604c.2477513-.3358433-.4348201.1709554 0 0zm.9123271.2182463c1.1548473-.1527517-.2944137-.4969649-.2331037-.0121374l.2331037.012138zm-1.7034988-1.3322842c-.8133523-1.0617258 1.5294035.1782803.7028685-.9334564-.6955449-.5532522-1.3632596.6237692-.7028685.9334564zm10.4338008 5.6195724c.372882-.660597-1.539029-.8909796-.25089-.2339408.118435.03934.09165.2795566.25089.2339408z " style="fill:#031425;"/></svg>